<svg xmlns="http://www.w3.org/2000/svg" viewBox="0 0 1600 1000" width="1600" height="1000" role="img" aria-label="HedgeIQ unified portfolio dashboard">
  <defs>
    <linearGradient id="bg" x1="0" y1="0" x2="0" y2="1">
      <stop offset="0" stop-color="#FAF7F2"/><stop offset="1" stop-color="#F4F1EC"/>
    </linearGradient>
    <linearGradient id="accent" x1="0" y1="0" x2="1" y2="0">
      <stop offset="0" stop-color="#B8542A"/><stop offset="1" stop-color="#D8703F"/>
    </linearGradient>
  </defs>
  <rect width="1600" height="1000" fill="url(#bg)"/>
  <!-- header -->
  <rect x="0" y="0" width="1600" height="64" fill="#FFFFFF"/>
  <rect x="0" y="63" width="1600" height="1" fill="#E2DCD0"/>
  <text x="32" y="40" font-family="Georgia, serif" font-size="22" font-weight="700" fill="#141B2D">HedgeIQ</text>
  <rect x="200" y="20" width="180" height="24" rx="4" fill="#EFE9DD"/>
  <rect x="1450" y="18" width="120" height="28" rx="4" fill="url(#accent)"/>
  <text x="1510" y="37" font-size="13" font-weight="600" fill="#FFF" text-anchor="middle">Hedge now</text>
  <!-- KPI cards -->
  <g font-family="Inter, sans-serif" fill="#141B2D">
    <rect x="32" y="96" width="370" height="120" rx="6" fill="#FFFFFF" stroke="#E2DCD0"/>
    <text x="56" y="128" font-size="12" fill="#6E7384" letter-spacing="1">PORTFOLIO VALUE</text>
    <text x="56" y="172" font-size="34" font-weight="700">$284,512.40</text>
    <text x="56" y="198" font-size="13" fill="#0E8F4A">+$3,212 (1.14%) today</text>

    <rect x="416" y="96" width="370" height="120" rx="6" fill="#FFFFFF" stroke="#E2DCD0"/>
    <text x="440" y="128" font-size="12" fill="#6E7384" letter-spacing="1">DAY P/L</text>
    <text x="440" y="172" font-size="34" font-weight="700" fill="#0E8F4A">+$3,212.00</text>
    <text x="440" y="198" font-size="13" fill="#6E7384">across 14 positions</text>

    <rect x="800" y="96" width="370" height="120" rx="6" fill="#FFFFFF" stroke="#E2DCD0"/>
    <text x="824" y="128" font-size="12" fill="#6E7384" letter-spacing="1">EXPOSURE</text>
    <text x="824" y="172" font-size="34" font-weight="700">71%</text>
    <text x="824" y="198" font-size="13" fill="#6E7384">long bias · 3 sectors</text>

    <rect x="1184" y="96" width="384" height="120" rx="6" fill="#FFFFFF" stroke="#E2DCD0"/>
    <text x="1208" y="128" font-size="12" fill="#6E7384" letter-spacing="1">RISK SCORE</text>
    <text x="1208" y="172" font-size="34" font-weight="700" fill="#D4890A">Moderate</text>
    <text x="1208" y="198" font-size="13" fill="#6E7384">2 unhedged · review</text>
  </g>
  <!-- chart -->
  <rect x="32" y="240" width="940" height="380" rx="6" fill="#FFFFFF" stroke="#E2DCD0"/>
  <text x="56" y="272" font-family="Inter, sans-serif" font-size="14" font-weight="600" fill="#141B2D">Portfolio · 90D</text>
  <polyline points="56,560 160,540 260,510 360,490 460,470 560,440 660,420 760,400 860,380 940,360" stroke="url(#accent)" stroke-width="2.5" fill="none"/>
  <polyline points="56,560 160,540 260,510 360,490 460,470 560,440 660,420 760,400 860,380 940,360 940,600 56,600" fill="rgba(184,84,42,0.08)" stroke="none"/>
  <line x1="56" y1="600" x2="940" y2="600" stroke="#E6E0D3"/>
  <!-- positions table -->
  <rect x="996" y="240" width="572" height="380" rx="6" fill="#FFFFFF" stroke="#E2DCD0"/>
  <text x="1020" y="272" font-family="Inter, sans-serif" font-size="14" font-weight="600" fill="#141B2D">Top positions</text>
  <g font-family="Inter, sans-serif" font-size="13">
    <text x="1020" y="312" fill="#141B2D" font-weight="600">AAPL</text><text x="1540" y="312" fill="#0E8F4A" text-anchor="end">+1.4%</text>
    <text x="1020" y="346" fill="#141B2D" font-weight="600">NVDA</text><text x="1540" y="346" fill="#0E8F4A" text-anchor="end">+3.1%</text>
    <text x="1020" y="380" fill="#141B2D" font-weight="600">AAL</text><text x="1540" y="380" fill="#C8352A" text-anchor="end">-2.8%</text>
    <text x="1020" y="414" fill="#141B2D" font-weight="600">SPY</text><text x="1540" y="414" fill="#0E8F4A" text-anchor="end">+0.6%</text>
    <text x="1020" y="448" fill="#141B2D" font-weight="600">TSLA</text><text x="1540" y="448" fill="#C8352A" text-anchor="end">-0.9%</text>
    <text x="1020" y="482" fill="#141B2D" font-weight="600">MSFT</text><text x="1540" y="482" fill="#0E8F4A" text-anchor="end">+1.0%</text>
  </g>
  <!-- broker strip -->
  <rect x="32" y="644" width="1536" height="80" rx="6" fill="#FFFFFF" stroke="#E2DCD0"/>
  <g font-family="Inter, sans-serif" font-size="13" fill="#5A6075">
    <text x="64" y="690">Fidelity · 4 accounts</text>
    <text x="380" y="690">IBKR · 1 account</text>
    <text x="640" y="690">Robinhood · 1 account</text>
    <text x="960" y="690">Public · 1 account</text>
    <text x="1240" y="690" fill="#0E8F4A">All synced 32s ago</text>
  </g>
  <rect x="32" y="748" width="1536" height="220" rx="6" fill="#FFFFFF" stroke="#E2DCD0"/>
  <text x="56" y="780" font-family="Inter, sans-serif" font-size="14" font-weight="600" fill="#141B2D">Recent activity</text>
  <g font-family="Inter, sans-serif" font-size="12" fill="#5A6075">
    <text x="56" y="820">10:41  AAPL · 50 shares · $172.40</text>
    <text x="56" y="852">10:32  NVDA Put 850 · sell 5</text>
    <text x="56" y="884">10:18  Hedge calc · AAL · top result Put 11</text>
    <text x="56" y="916">09:55  Daily AI brief generated</text>
  </g>
</svg>
